P3
20 20
255
255 0 0  255 54 0  255 108 0  255 162 0  255 216 0  241 255 0  187 255 0  134 255 0  80 255 0  26 255 0  0 255 27  0 255 81  0 255 135  0 255 188  0 255 242  0 215 255  0 161 255  0 107 255  0 53 255  0 0 255  
255 54 0  255 183 0  212 255 0  119 255 0  49 255 0  0 255 2  0 255 44  0 255 82  0 255 118  0 255 154  0 255 190  0 255 226  0 250 255  0 214 255  0 178 255  0 143 255  0 108 255  0 73 255  0 37 255  0 0 255  
255 108 0  217 255 0  50 255 0  0 255 73  0 255 156  0 255 206  0 255 239  0 248 255  0 227 255  0 206 255  0 185 255  0 165 255  0 144 255  0 123 255  0 103 255  0 84 255  0 65 255  0 47 255  0 27 255  0 0 255  
255 141 0  139 255 0  0 255 62  0 255 210  0 212 255  0 163 255  0 138 255  0 123 255  0 112 255  0 101 255  0 91 255  0 81 255  0 71 255  0 61 255  0 52 255  0 44 255  0 38 255  0 35 255  0 31 255  0 0 255  
255 149 0  95 255 0  0 255 130  0 222 255  0 128 255  0 81 255  0 60 255  0 51 255  0 46 255  0 42 255  0 37 255  0 33 255  0 29 255  0 25 255  0 23 255  0 22 255  0 26 255  0 36 255  0 50 255  0 0 255  
255 158 0  71 255 0  0 255 163  0 183 255  0 88 255  0 42 255  0 24 255  0 18 255  0 15 255  0 14 255  0 12 255  0 11 255  0 10 255  0 9 255  0 10 255  0 14 255  0 25 255  0 46 255  0 76 255  0 0 255  
255 167 0  58 255 0  0 255 179  0 167 255  0 72 255  0 28 255  0 11 255  0 5 255  0 4 255  0 3 255  0 3 255  0 3 255  0 2 255  0 3 255  0 6 255  0 13 255  0 30 255  0 60 255  0 103 255  0 0 255  
255 178 0  48 255 0  0 255 187  0 160 255  0 67 255  0 23 255  0 7 255  0 2 255  0 1 255  0 0 255  0 0 255  0 0 255  0 0 255  0 1 255  0 5 255  0 15 255  0 37 255  0 75 255  0 131 255  0 0 255  
255 191 0  39 255 0  0 255 193  0 157 255  0 65 255  0 22 255  0 6 255  0 1 255  0 0 255  0 0 255  0 0 255  0 0 255  0 0 255  0 1 255  0 6 255  0 18 255  0 45 255  0 91 255  0 158 255  0 0 255  
255 205 0  30 255 0  0 255 198  0 154 255  0 63 255  0 21 255  0 5 255  0 1 255  0 0 255  0 0 255  0 0 255  0 0 255  0 0 255  0 2 255  0 7 255  0 21 255  0 52 255  0 106 255  0 185 255  0 0 255  
255 221 0  19 255 0  0 255 205  0 151 255  0 62 255  0 21 255  0 5 255  0 1 255  0 0 255  0 0 255  0 0 255  0 0 255  0 0 255  0 2 255  0 8 255  0 24 255  0 59 255  0 121 255  0 210 255  0 0 255  
255 238 0  7 255 0  0 255 212  0 148 255  0 61 255  0 20 255  0 5 255  0 1 255  0 0 255  0 0 255  0 0 255  0 0 255  0 0 255  0 2 255  0 9 255  0 27 255  0 66 255  0 134 255  0 233 255  0 0 255  
252 255 0  0 255 5  0 255 219  0 144 255  0 60 255  0 21 255  0 6 255  0 2 255  0 1 255  0 1 255  0 1 255  0 1 255  0 1 255  0 4 255  0 11 255  0 31 255  0 73 255  0 148 255  0 255 255  0 0 255  
229 255 0  0 255 19  0 255 226  0 143 255  0 62 255  0 25 255  0 11 255  0 7 255  0 6 255  0 6 255  0 6 255  0 6 255  0 6 255  0 8 255  0 16 255  0 37 255  0 82 255  0 162 255  0 255 234  0 0 255  
202 255 0  0 255 33  0 255 227  0 150 255  0 74 255  0 39 255  0 27 255  0 24 255  0 24 255  0 25 255  0 25 255  0 24 255  0 24 255  0 25 255  0 32 255  0 53 255  0 99 255  0 181 255  0 255 211  0 0 255  
171 255 0  0 255 41  0 255 217  0 175 255  0 107 255  0 78 255  0 70 255  0 70 255  0 72 255  0 74 255  0 74 255  0 72 255  0 69 255  0 68 255  0 72 255  0 90 255  0 134 255  0 212 255  0 255 184  0 0 255  
136 255 0  0 255 39  0 255 182  0 232 255  0 182 255  0 162 255  0 161 255  0 167 255  0 174 255  0 179 255  0 179 255  0 174 255  0 167 255  0 160 255  0 158 255  0 169 255  0 202 255  0 255 244  0 255 146  0 0 255  
95 255 0  0 255 22  0 255 116  0 255 174  0 255 200  0 255 201  0 255 189  0 255 172  0 255 156  0 255 145  0 255 145  0 255 156  0 255 172  0 255 190  0 255 203  0 255 208  0 255 194  0 255 157  0 255 93  0 0 255  
50 255 0  10 255 0  0 255 15  0 255 22  0 255 11  12 255 0  43 255 0  76 255 0  107 255 0  131 255 0  131 255 0  107 255 0  76 255 0  42 255 0  10 255 0  0 255 15  0 255 32  0 255 35  0 255 25  0 0 255  
0 0 255  0 0 255  0 0 255  0 0 255  0 0 255  0 0 255  0 0 255  0 0 255  0 0 255  0 0 255  0 0 255  0 0 255  0 0 255  0 0 255  0 0 255  0 0 255  0 0 255  0 0 255  0 0 255  0 0 255  
